<?xml version="1.0" encoding="UTF-8"?>
<svg id="Layer_2" xmlns="http://www.w3.org/2000/svg" version="1.1" viewBox="0 0 341.5 43.9">
  <!-- Generator: Adobe Illustrator 30.4.0, SVG Export Plug-In . SVG Version: 2.1.4 Build 226)  -->
  <defs>
    <style>
      .st0 {
        fill: #032341;
      }

      .st1 {
        fill: #ff5400;
      }
    </style>
  </defs>
  <g id="Layer_1-2">
    <g>
      <path class="st1" d="M23.9,13.1c8.1,0,12.9,2.4,13.8,8.5h9.9c-1-10.9-8.6-16.7-23.7-16.7-16.7,0-23.9,6.9-23.9,19.5s7.2,19.6,23.9,19.6,22.7-5.8,23.7-16.8h-9.9c-.9,6.2-5.7,8.6-13.8,8.6s-14.1-3.6-14.1-11.4,4.2-11.3,14.1-11.3h0Z"/>
      <path class="st1" d="M60.7,16.9v-5.4h-9.3v31.9h9.3v-19.1c5.6-4.4,11.6-5.6,16.8-5.6s5.2.3,8.2,1.1v-7.8c-2.2-.5-4.8-1.1-8.6-1.1-6,0-11.6,1.7-16.4,6h0Z"/>
      <path class="st1" d="M109.5,10.9c-13.2,0-22.1,4.8-22.1,16.5s8.9,16.5,22.1,16.5,22.1-4.8,22.1-16.5-8.9-16.5-22.1-16.5ZM109.5,36.1c-8.6,0-12.8-2.1-12.8-8.7s4.2-8.8,12.8-8.8,12.8,2.1,12.8,8.8-4.2,8.7-12.8,8.7Z"/>
      <polygon class="st0" points="199 5.4 187.8 35.3 175.9 5.4 163.9 5.4 152.1 35.2 140.8 5.4 130.3 5.4 145.3 43.4 158.7 43.4 169.9 14.8 181.1 43.4 194.6 43.4 209.6 5.4 199 5.4"/>
      <path class="st0" d="M230.6,10.9c-13.2,0-22.1,4.8-22.1,16.5s8.9,16.5,22.1,16.5,22.1-4.8,22.1-16.5-8.9-16.5-22.1-16.5ZM230.6,36.1c-8.6,0-12.9-2.1-12.9-8.7s4.2-8.8,12.9-8.8,12.8,2.1,12.8,8.8-4.2,8.7-12.8,8.7Z"/>
      <path class="st0" d="M265.5,16.9v-5.4h-9.3v31.9h9.3v-19.1c5.6-4.4,11.6-5.6,16.8-5.6s5.1.3,8.2,1.1v-7.8c-2.2-.5-4.8-1.1-8.6-1.1-6,0-11.6,1.7-16.4,6h0Z"/>
      <polygon class="st0" points="341.5 11.4 325.6 11.4 302.4 25.8 302.4 0 293.1 0 293.1 43.4 302.4 43.4 302.4 36 313.3 29.4 328.6 43.4 341.5 43.4 320.8 24.5 341.5 11.4"/>
    </g>
  </g>
</svg>